<svg width="49" height="29" viewBox="0 0 49 29" fill="none" xmlns="http://www.w3.org/2000/svg">
<path d="M8.22266 9.96875V13.1797C7.84766 13.3047 7.48828 13.4453 7.14453 13.6016C6.80078 13.7422 6.49609 13.875 6.23047 14C5.91797 14.1562 5.62891 14.3125 5.36328 14.4688L4.54297 14.9609C4.30859 15.1016 4.05078 15.2578 3.76953 15.4297C3.48828 15.6016 3.23047 15.7656 2.99609 15.9219C3.26172 16.1094 3.51172 16.2812 3.74609 16.4375C3.99609 16.5938 4.21484 16.7344 4.40234 16.8594C4.62109 17 4.83203 17.1328 5.03516 17.2578C5.28516 17.4141 5.57422 17.5781 5.90234 17.75C6.24609 17.9219 6.56641 18.0781 6.86328 18.2188C7.17578 18.3594 7.44141 18.4844 7.66016 18.5938C7.87891 18.6875 7.99609 18.75 8.01172 18.7812C8.02734 18.8281 8.03516 18.9766 8.03516 19.2266C8.03516 19.4453 8.03516 19.7734 8.03516 20.2109C8.03516 20.6484 8.02734 21.2656 8.01172 22.0625C7.55859 21.6406 7.13672 21.2578 6.74609 20.9141C6.37109 20.5703 6.03516 20.2734 5.73828 20.0234C5.39453 19.7422 5.07422 19.4922 4.77734 19.2734C4.46484 19.0547 4.08984 18.7812 3.65234 18.4531C3.27734 18.1719 2.80078 17.8125 2.22266 17.375C1.66016 16.9375 0.988281 16.4219 0.207031 15.8281C0.941406 15.2969 1.55078 14.8594 2.03516 14.5156C2.51953 14.1719 2.90234 13.8984 3.18359 13.6953C3.51172 13.4609 3.76953 13.2891 3.95703 13.1797C4.16016 13.0391 4.45703 12.8281 4.84766 12.5469C5.17578 12.3125 5.60547 11.9922 6.13672 11.5859C6.68359 11.1641 7.37891 10.625 8.22266 9.96875ZM9.30078 6.19531C9.80078 6.21094 10.2383 6.21875 10.6133 6.21875C10.9883 6.20313 11.293 6.19531 11.5273 6.19531H12.207C12.3789 6.17969 12.5898 6.17188 12.8398 6.17188C13.0586 6.17188 13.3242 6.17188 13.6367 6.17188C13.9492 6.17188 14.3086 6.17969 14.7148 6.19531C14.8398 6.63281 14.9805 7.0625 15.1367 7.48438C15.3086 7.89063 15.457 8.25781 15.582 8.58594C15.7383 8.97656 15.8945 9.34375 16.0508 9.6875C16.207 10.0312 16.3945 10.4453 16.6133 10.9297C16.8008 11.3359 17.0273 11.8359 17.293 12.4297C17.5586 13.0078 17.8711 13.6719 18.2305 14.4219C18.4023 13.9375 18.5586 13.4922 18.6992 13.0859C18.8555 12.6797 18.9883 12.3281 19.0977 12.0312C19.2227 11.6875 19.3242 11.375 19.4023 11.0938C19.4805 10.8125 19.5664 10.4688 19.6602 10.0625C19.7383 9.71875 19.8242 9.30469 19.918 8.82031C20.0273 8.33594 20.1367 7.77344 20.2461 7.13281C20.6992 7.13281 21.1055 7.13281 21.4648 7.13281C21.8242 7.13281 22.1367 7.125 22.4023 7.10938C22.6992 7.10938 22.9648 7.10156 23.1992 7.08594C23.4492 7.08594 23.7852 7.07031 24.207 7.03906C24.5664 7.00781 25.043 6.98437 25.6367 6.96875C26.2461 6.9375 26.9961 6.89844 27.8867 6.85156C27.5586 7.08594 27.293 7.32031 27.0898 7.55469C26.9023 7.77344 26.7539 7.96875 26.6445 8.14062C26.5195 8.34375 26.4414 8.53906 26.4102 8.72656C26.3789 8.88281 26.3477 9.24219 26.3164 9.80469C26.3008 10.3672 26.2773 11.0391 26.2461 11.8203C26.2305 12.5859 26.2148 13.4062 26.1992 14.2812C26.1992 15.1562 26.207 15.9844 26.2227 16.7656C26.2383 17.5469 26.2617 18.2266 26.293 18.8047C26.3398 19.3672 26.4023 19.7266 26.4805 19.8828C26.5898 20.0703 26.7383 20.2891 26.9258 20.5391C27.0977 20.7578 27.3164 21.0078 27.582 21.2891C27.8633 21.5703 28.2305 21.8828 28.6836 22.2266C27.9648 22.2578 27.3633 22.2812 26.8789 22.2969C26.4102 22.3125 26.0195 22.3281 25.707 22.3438C25.3477 22.3594 25.0586 22.3672 24.8398 22.3672C24.6055 22.3672 24.2852 22.375 23.8789 22.3906C23.5195 22.4062 23.043 22.4297 22.4492 22.4609C21.8555 22.4766 21.0898 22.5078 20.1523 22.5547C20.3711 22.3047 20.5742 22.0547 20.7617 21.8047C20.9492 21.5547 21.1055 21.3281 21.2305 21.125C21.3867 20.8906 21.5195 20.6641 21.6289 20.4453C21.7383 20.1484 21.8242 19.6094 21.8867 18.8281C21.9492 18.1562 21.9961 17.1953 22.0273 15.9453C22.0586 14.6797 22.0586 12.9844 22.0273 10.8594C21.7305 11.3438 21.4648 11.8281 21.2305 12.3125C21.0117 12.7812 20.8164 13.2109 20.6445 13.6016C20.457 14.0547 20.2852 14.4922 20.1289 14.9141C19.9727 15.3516 19.8086 15.8359 19.6367 16.3672C19.4805 16.8203 19.293 17.3594 19.0742 17.9844C18.8711 18.6094 18.6367 19.2969 18.3711 20.0469L17.4805 20.0938C17.3555 19.4688 17.2305 18.9062 17.1055 18.4062C16.9805 17.8906 16.8555 17.4531 16.7305 17.0938C16.5898 16.6719 16.4492 16.2969 16.3086 15.9688C16.1523 15.6406 15.9805 15.2734 15.793 14.8672C15.6211 14.5234 15.4102 14.1172 15.1602 13.6484C14.9258 13.1797 14.6523 12.6562 14.3398 12.0781C14.1836 13.6719 14.0898 14.9688 14.0586 15.9688C14.0273 16.9531 14.0273 17.7188 14.0586 18.2656C14.0898 18.9219 14.1367 19.3984 14.1992 19.6953C14.293 19.9609 14.4414 20.2578 14.6445 20.5859C14.8164 20.8672 15.0508 21.2031 15.3477 21.5938C15.6602 21.9688 16.0586 22.3906 16.543 22.8594C16.1992 22.8594 15.8398 22.8594 15.4648 22.8594C15.0898 22.8594 14.7461 22.8672 14.4336 22.8828C14.0586 22.8984 13.6914 22.9062 13.332 22.9062C12.957 22.9219 12.5195 22.9453 12.0195 22.9766C11.582 23.0078 11.0586 23.0391 10.4492 23.0703C9.83984 23.1016 9.13672 23.1562 8.33984 23.2344C8.68359 23.0156 8.96484 22.8047 9.18359 22.6016C9.40234 22.3828 9.57422 22.1875 9.69922 22.0156C9.85547 21.8125 9.97266 21.6094 10.0508 21.4062C10.0977 21.2812 10.1367 21.0078 10.168 20.5859C10.2148 20.1641 10.2539 19.6484 10.2852 19.0391C10.332 18.4297 10.3633 17.75 10.3789 17C10.4102 16.25 10.4336 15.4922 10.4492 14.7266C10.4805 13.9453 10.5039 13.1875 10.5195 12.4531C10.5352 11.7031 10.543 11.0312 10.543 10.4375C10.5586 9.82812 10.5664 9.32031 10.5664 8.91406C10.5664 8.50781 10.5664 8.25 10.5664 8.14062C10.5195 7.90625 10.4492 7.67188 10.3555 7.4375C10.2773 7.23438 10.1523 7.02344 9.98047 6.80469C9.80859 6.58594 9.58203 6.38281 9.30078 6.19531ZM36.6523 5.28125H38.4102C38.5352 5.28125 38.668 5.28906 38.8086 5.30469C38.9336 5.32031 39.0664 5.33594 39.207 5.35156C39.3633 5.35156 39.5273 5.36719 39.6992 5.39844C38.9492 6.69531 38.3164 7.82812 37.8008 8.79688C37.2852 9.76562 36.8555 10.5781 36.5117 11.2344C36.1055 12 35.7695 12.6484 35.5039 13.1797C35.2227 13.7422 34.8789 14.4766 34.4727 15.3828C34.1133 16.1641 33.6523 17.1719 33.0898 18.4062C32.543 19.6406 31.8711 21.1484 31.0742 22.9297C30.9492 22.9297 30.8164 22.9375 30.6758 22.9531C30.5352 22.9531 30.4023 22.9609 30.2773 22.9766C30.1211 22.9922 29.9727 23 29.832 23C29.6758 23 29.5117 23.0156 29.3398 23.0469C29.1836 23.0781 29.0117 23.1094 28.8242 23.1406C28.6367 23.1719 28.4336 23.2188 28.2148 23.2812C29.0586 21.6719 29.7539 20.3438 30.3008 19.2969C30.8477 18.25 31.2773 17.3984 31.5898 16.7422C31.9648 15.9922 32.2539 15.3984 32.457 14.9609C32.7852 14.2578 33.1602 13.4219 33.582 12.4531C33.9414 11.625 34.3789 10.6172 34.8945 9.42969C35.4102 8.22656 35.9961 6.84375 36.6523 5.28125ZM40.7773 9.96875C41.6055 10.625 42.293 11.1641 42.8398 11.5859C43.3867 11.9922 43.8242 12.3125 44.1523 12.5469C44.543 12.8281 44.8398 13.0391 45.043 13.1797C45.2305 13.2891 45.4883 13.4609 45.8164 13.6953C46.0977 13.8984 46.4727 14.1719 46.9414 14.5156C47.4258 14.8594 48.043 15.2969 48.793 15.8281C47.9961 16.4219 47.3164 16.9375 46.7539 17.375C46.1914 17.8125 45.7227 18.1719 45.3477 18.4531C44.9102 18.7812 44.5352 19.0547 44.2227 19.2734C43.9258 19.4922 43.6055 19.7422 43.2617 20.0234C42.9648 20.2734 42.6211 20.5703 42.2305 20.9141C41.8398 21.2578 41.418 21.6406 40.9648 22.0625C40.9492 21.2656 40.9414 20.6484 40.9414 20.2109C40.9414 19.7734 40.9414 19.4453 40.9414 19.2266C40.9414 18.9766 40.9492 18.8281 40.9648 18.7812C40.9805 18.75 41.0977 18.6875 41.3164 18.5938C41.5508 18.4844 41.8164 18.3594 42.1133 18.2188C42.4258 18.0781 42.7461 17.9219 43.0742 17.75C43.418 17.5781 43.7148 17.4141 43.9648 17.2578C44.168 17.1328 44.3789 17 44.5977 16.8594C44.7852 16.7344 44.9961 16.5938 45.2305 16.4375C45.4648 16.2812 45.7148 16.1094 45.9805 15.9219C45.7461 15.7656 45.4883 15.6016 45.207 15.4297C44.9414 15.2578 44.6914 15.1016 44.457 14.9609L43.6367 14.4688C43.3711 14.3125 43.082 14.1562 42.7695 14C42.5039 13.875 42.1914 13.7422 41.832 13.6016C41.4883 13.4453 41.1367 13.3047 40.7773 13.1797V9.96875Z" fill="#F9FAFB"/>
</svg>
