<svg width="20" height="20" viewBox="0 0 20 20" fill="none" xmlns="http://www.w3.org/2000/svg">
<path d="M12.5 18.3333V15C12.6159 13.9561 12.3166 12.9084 11.6667 12.0833C14.1667 12.0833 16.6667 10.4167 16.6667 7.49999C16.7333 6.45832 16.4417 5.43332 15.8333 4.58332C16.0667 3.62499 16.0667 2.62499 15.8333 1.66666C15.8333 1.66666 15 1.66666 13.3333 2.91666C11.1333 2.49999 8.86666 2.49999 6.66666 2.91666C4.99999 1.66666 4.16666 1.66666 4.16666 1.66666C3.91666 2.62499 3.91666 3.62499 4.16666 4.58332C3.55988 5.42989 3.26538 6.46065 3.33332 7.49999C3.33332 10.4167 5.83332 12.0833 8.33332 12.0833C8.00832 12.4917 7.76666 12.9583 7.62499 13.4583C7.48332 13.9583 7.44166 14.4833 7.49999 15V18.3333" stroke="#9DA6AF" stroke-width="2" stroke-linecap="round" stroke-linejoin="round"/>
<path d="M7.49996 15C3.74163 16.6667 3.33329 13.3333 1.66663 13.3333" stroke="#9DA6AF" stroke-width="2" stroke-linecap="round" stroke-linejoin="round"/>
</svg>
