<svg width="20" height="20" viewBox="0 0 20 20" fill="none" xmlns="http://www.w3.org/2000/svg">
<path d="M13.3334 6.66666C14.6595 6.66666 15.9312 7.19344 16.8689 8.13112C17.8066 9.0688 18.3334 10.3406 18.3334 11.6667V17.5H15V11.6667C15 11.2246 14.8244 10.8007 14.5119 10.4881C14.1993 10.1756 13.7754 9.99999 13.3334 9.99999C12.8913 9.99999 12.4674 10.1756 12.1549 10.4881C11.8423 10.8007 11.6667 11.2246 11.6667 11.6667V17.5H8.33337V11.6667C8.33337 10.3406 8.86016 9.0688 9.79784 8.13112C10.7355 7.19344 12.0073 6.66666 13.3334 6.66666Z" stroke="#9DA6AF" stroke-width="1.33333" stroke-linecap="round" stroke-linejoin="round"/>
<path d="M4.99996 7.5H1.66663V17.5H4.99996V7.5Z" stroke="#9DA6AF" stroke-width="1.33333" stroke-linecap="round" stroke-linejoin="round"/>
<path d="M3.33329 4.99999C4.25377 4.99999 4.99996 4.2538 4.99996 3.33332C4.99996 2.41285 4.25377 1.66666 3.33329 1.66666C2.41282 1.66666 1.66663 2.41285 1.66663 3.33332C1.66663 4.2538 2.41282 4.99999 3.33329 4.99999Z" stroke="#9DA6AF" stroke-width="1.33333" stroke-linecap="round" stroke-linejoin="round"/>
</svg>
